<svg viewBox="0 0 1024 1024" xmlns="http://www.w3.org/2000/svg">
 <g>
  <title>Layer 1</title>
  <ellipse fill="#ffffff" stroke="#000" stroke-width="0.1" cx="512" cy="512" id="svg_13" rx="512" ry="512"/>
  <ellipse fill="#ffffff" stroke="#000" cx="512.00001" cy="528.56664" id="svg_1" rx="300" ry="300" stroke-width="30"/>
  <ellipse fill="#ffffff" stroke="#000" stroke-width="50" cx="513.36754" cy="528.56664" id="svg_7" rx="210" ry="210"/>
  <ellipse fill="#000000" stroke="#000" cx="511.99999" cy="146.87832" id="svg_47" rx="337.86408" ry="59.65234"/>
  <ellipse fill="#ffffff" stroke="#000" cx="511.99999" cy="146.46772" id="svg_48" rx="227" ry="39"/>
  <line fill="none" stroke="#000" stroke-width="40" x1="512" y1="34" x2="512" y2="993" id="svg_9"/>
  <path fill="#000000" stroke="#000" stroke-width="4" d="m514.63033,367.19343l-2.96567,158.41673l129.35483,0.08965c-26.75023,-1.08528 -62.85674,-30.246 -82.68174,-54.4953c-19.82508,-24.24924 -41.52178,-62.47738 -43.70741,-104.01108z" id="svg_42" transform="rotate(-0.116627, 576.342, 446.447)"/>
  <path fill="#000000" stroke="#000" stroke-width="4" d="m514.04115,690.49234l0.89404,-162.3371l126.85225,0.82344c-27.00043,0.65189 -62.08547,31.98412 -84.25792,59.44405c-22.17246,27.46 -39.97231,56.50504 -43.48836,102.06954l0,0.00007l-0.00001,0z" id="svg_45"/>
  <line fill="none" stroke="#000" x1="40" y1="529" x2="984" y2="528.56664" id="svg_3" stroke-width="40"/>
  <path fill="#000000" stroke="#000" stroke-width="4" d="m383.65929,528.59707l-3.08207,172.15488l134.43202,0.09742c-27.80018,-1.1794 -65.32387,-32.86898 -85.92701,-59.22122c-20.60322,-26.35217 -43.15152,-67.89552 -45.42293,-113.03109z" id="svg_5" transform="rotate(-180, 447.793, 614.723)"/>
  <path fill="#000000" stroke="#000" d="m364.95431,666.68743l53.59375,-39.92451l-39.63858,53.98033l-13.95511,-14.05577l-0.00005,-0.00005l-0.00002,0z" id="svg_53" stroke-width="6"/>
  <path transform="rotate(2.92405, 633.094, 654.264)" fill="#000000" stroke="#000" d="m646.82882,680.01763l-42.39666,-51.50767l57.32285,38.0957l-14.92612,13.41193l-0.00005,0.00005l-0.00002,0z" id="svg_54" stroke-width="6"/>
  <path fill="#000000" stroke="#000" d="m662.27593,391.22754l-55.92295,38.33961l41.36128,-51.83745l14.5616,13.4978l0.00005,0.00005l0.00002,0z" id="svg_55" stroke-width="6"/>
  <path fill="#000000" stroke="#000" d="m379.64863,375.99189l42.39488,55.78157l-57.32044,-41.25673l14.92549,-14.52479l0.00005,-0.00005l0.00002,0z" id="svg_56" stroke-width="6"/>
  <path fill="#000000" stroke="#000" stroke-width="4" d="m374.42714,530.20832l0.93113,-155.38059l132.11476,0.78816c-28.12056,0.62396 -64.6611,30.61353 -87.75339,56.89674c-23.09229,26.28328 -41.63058,54.08367 -45.29249,97.69563l0,0.00007l-0.00001,0z" id="svg_6" transform="rotate(180, 440.95, 452.518)"/>
  <path fill="#ffffff" stroke="#000" stroke-width="6" opacity="undefined" d="m512,566.07305c-21.09395,0 -38.18008,-16.97292 -38.18008,-37.92717c0,-20.95425 17.08608,-37.92717 38.18008,-37.92717c21.09395,0 38.18008,16.97292 38.18008,37.92717c0,20.95425 -17.08608,37.92717 -38.18008,37.92717z" id="svg_46"/>
  <path id="svg_58" d="m512,1023.99994c-282.87293,0 -512,-229.12707 -512,-512c0,-282.87293 229.12707,-512 512,-512c282.87293,0 512,229.12707 512,512c0,282.87293 -229.12707,512 -512,512z" opacity="0.49" stroke-width="0.1" stroke="#000" fill="url(#svg_12)"/>
 </g>
 <defs>
  <linearGradient id="svg_12" x1="0" y1="0" x2="1" y2="1">
   <stop stop-color="#00e9ff" stop-opacity="0.98438" offset="0"/>
   <stop stop-color="#ff63d8" stop-opacity="0.99219" offset="1"/>
  </linearGradient>
 </defs>
</svg>