<svg viewBox="0, 0, 256, 256" high="48" width="48" xmlns="http://www.w3.org/2000/svg">
 <g>
  <title>Layer 1</title>
  <ellipse ry="128" rx="128" id="svg_13" cy="128" cx="127.99999" stroke-width="0.1" stroke="#000" fill="#ffffff"/>
  <ellipse stroke-width="2" ry="70" rx="70" id="svg_1" cy="134" cx="128.32787" stroke="#000" fill="#ffffff"/>
  <ellipse ry="58" rx="58" id="svg_4" cy="134" cx="128" stroke="#000" fill="#ffffff"/>
  <ellipse ry="52" rx="52" id="svg_7" cy="134" cx="128" stroke-width="7" stroke="#000" fill="#ffffff"/>
  <ellipse ry="14" rx="80" id="svg_47" cy="47.53521" cx="128" stroke="#000" fill="#000000"/>
  <ellipse ry="12.57537" rx="60" id="svg_48" cy="47.42463" cx="128" stroke="#000" fill="#ffffff"/>
  <line id="svg_9" y2="243" x2="128" y1="13" x1="128" stroke-width="5" stroke="#000" fill="none"/>
  <path transform="rotate(90, 137.645, 121.472)" id="svg_42" d="m125.14418,131.04752l24.9868,0.46015l0.01414,-20.07057c-0.17118,4.15054 -4.77065,9.75279 -8.59545,12.82882c-3.82479,3.07604 -9.85445,6.44248 -16.40549,6.7816z" stroke-width="4" stroke="#000" fill="none"/>
  <path transform="rotate(-90, 118.396, 146.5)" id="svg_43" d="m105.8953,156.0756l24.9868,0.46015l0.01414,-20.07057c-0.17118,4.15054 -4.77065,9.75279 -8.59545,12.82882c-3.82479,3.07604 -9.85445,6.44248 -16.40549,6.7816z" stroke-width="4" stroke="#000" fill="none"/>
  <path transform="rotate(90, 118.214, 121.694)" id="svg_44" d="m105.72075,111.9848l24.9868,0.40274l-0.13807,19.01488c-0.09507,-4.0474 -4.61845,-9.30997 -8.74765,-12.73022c-4.12921,-3.42025 -9.24562,-6.15525 -16.10107,-6.6874l-0.00001,0z" stroke-width="4" stroke="#000" fill="none"/>
  <path transform="rotate(-90.0427, 137.734, 146.109)" id="svg_45" d="m125.52069,136.5254l24.42588,0.15222l-0.13807,19.01488c-0.09507,-4.0474 -4.80554,-9.31011 -8.93481,-12.63681c-4.12928,-3.3267 -8.49754,-5.99813 -15.35299,-6.53029l-0.00001,0z" stroke-width="4" stroke="#000" fill="none"/>
  <line stroke-width="4" id="svg_3" y2="134" x2="242" y1="134" x1="12" stroke="#000" fill="none"/>
  <path id="svg_46" d="m127.80111,142.8025c-4.99466,0 -9.04034,-3.98343 -9.04034,-8.90125c0,-4.91782 4.04567,-8.90125 9.04034,-8.90125c4.99466,0 9.04034,3.98343 9.04034,8.90125c0,4.91782 -4.04567,8.90125 -9.04034,8.90125z" opacity="undefined" stroke-width="6" stroke="#000" fill="#ffffff"/>
  <path transform="rotate(90, 246.809, 134.018)" stroke-width="0.1" id="svg_49" d="m244.8826,138.82018l1.92659,-9.60372l1.92659,9.60372l-3.85317,0l-0.00001,0z" stroke="#000" fill="#000000"/>
  <path stroke-width="0.1" id="svg_50" d="m125.56865,12.96021l2.39828,-9.60372l2.39828,9.60372l-4.79657,0l0.00001,0z" stroke="#000" fill="#000000"/>
  <path transform="rotate(180, 128.034, 247.817)" stroke-width="0.1" id="svg_51" d="m125.63604,252.61868l2.39828,-9.60372l2.39828,9.60372l-4.79657,0l0.00001,0z" stroke="#000" fill="#000000"/>
  <path transform="rotate(-90, 7.30041, 134.018)" stroke-width="0.1" id="svg_52" d="m5.37303,138.82018l1.92659,-9.60372l1.92659,9.60372l-3.85317,0l-0.00001,0z" stroke="#000" fill="#000000"/>
  <path transform="rotate(45, 97.2703, 165.303)" stroke-width="0.1" id="svg_53" d="m95.8328,170.10476l1.4375,-9.60372l1.4375,9.60372l-2.87499,0l-0.00001,0z" stroke="#000" fill="#000000"/>
  <path transform="rotate(-45, 158.716, 165.171)" stroke-width="0.1" id="svg_54" d="m157.2782,169.97301l1.4375,-9.60372l1.4375,9.60372l-2.87499,0l-0.00001,0z" stroke="#000" fill="#000000"/>
  <path transform="rotate(-135, 158.847, 103.012)" stroke-width="0.1" id="svg_55" d="m157.40995,107.81414l1.4375,-9.60372l1.4375,9.60372l-2.87499,0l-0.00001,0z" stroke="#000" fill="#000000"/>
  <path transform="rotate(135, 97.2158, 103.012)" stroke-width="0.1" id="svg_56" d="m95.77828,107.81414l1.4375,-9.60372l1.4375,9.60372l-2.87499,0l-0.00001,0z" stroke="#000" fill="#000000"/>
  <ellipse opacity="0.52" ry="128" rx="128" id="svg_58" cy="128" cx="128" stroke-width="0.1" stroke="#000" fill="url(#svg_12)"/>
 </g>
 <defs>
  <linearGradient y2="1" x2="1" y1="0" x1="0" id="svg_12">
   <stop offset="0" stop-opacity="0.98438" stop-color="#00e9ff"/>
   <stop offset="1" stop-opacity="0.99219" stop-color="#ff63d8"/>
  </linearGradient>
 </defs>
</svg>